<svg width="59" height="59" viewBox="0 0 59 59" fill="none" xmlns="http://www.w3.org/2000/svg">
<g filter="url(#filter0_d_403_19)">
<rect x="8" y="8" width="39" height="39" rx="10" fill="#FFCC00"/>
</g>
<path d="M35.8571 33.0716V34.0002H19.1428V33.0716L21 31.2145V25.643C21 22.7645 22.885 20.2295 25.6428 19.4123C25.6428 19.3195 25.6428 19.2359 25.6428 19.143C25.6428 18.6505 25.8385 18.1781 26.1868 17.8298C26.535 17.4816 27.0074 17.2859 27.5 17.2859C27.9925 17.2859 28.4649 17.4816 28.8132 17.8298C29.1614 18.1781 29.3571 18.6505 29.3571 19.143C29.3571 19.2359 29.3571 19.3195 29.3571 19.4123C32.115 20.2295 34 22.7645 34 25.643V31.2145L35.8571 33.0716ZM29.3571 34.9287C29.3571 35.4213 29.1614 35.8937 28.8132 36.2419C28.4649 36.5902 27.9925 36.7859 27.5 36.7859C27.0074 36.7859 26.535 36.5902 26.1868 36.2419C25.8385 35.8937 25.6428 35.4213 25.6428 34.9287" fill="black"/>
<defs>
<filter id="filter0_d_403_19" x="0" y="0" width="59" height="59" filterUnits="userSpaceOnUse" color-interpolation-filters="sRGB">
<feFlood flood-opacity="0" result="BackgroundImageFix"/>
<feColorMatrix in="SourceAlpha" type="matrix" values="0 0 0 0 0 0 0 0 0 0 0 0 0 0 0 0 0 0 127 0" result="hardAlpha"/>
<feOffset dx="2" dy="2"/>
<feGaussianBlur stdDeviation="5"/>
<feComposite in2="hardAlpha" operator="out"/>
<feColorMatrix type="matrix" values="0 0 0 0 0 0 0 0 0 0 0 0 0 0 0 0 0 0 0.1 0"/>
<feBlend mode="normal" in2="BackgroundImageFix" result="effect1_dropShadow_403_19"/>
<feBlend mode="normal" in="SourceGraphic" in2="effect1_dropShadow_403_19" result="shape"/>
</filter>
</defs>
</svg>
