<svg width="19" height="17" viewBox="0 0 19 17" fill="none" xmlns="http://www.w3.org/2000/svg">
<path d="M9.5 0C14.725 0 19 3.38111 19 7.55556C18.9525 9.58611 17.993 11.4939 16.3875 12.75C16.3875 13.3167 16.7865 14.7994 19 17C16.7485 16.8961 14.592 16.0556 12.8535 14.6389C11.7705 14.9506 10.6305 15.1111 9.5 15.1111C4.275 15.1111 0 11.73 0 7.55556C0 3.38111 4.275 0 9.5 0ZM9.5 13.2222C13.699 13.2222 17.1 10.6817 17.1 7.55556C17.1 4.42944 13.699 1.88889 9.5 1.88889C5.301 1.88889 1.9 4.42944 1.9 7.55556C1.9 10.6817 5.301 13.2222 9.5 13.2222Z" fill="black" fill-opacity="0.5"/>
</svg>
