<svg width="62" height="62" viewBox="0 0 62 62" fill="none" xmlns="http://www.w3.org/2000/svg">
<g filter="url(#filter0_d_263_6)">
<rect x="8" y="8" width="42" height="42" rx="10" fill="#FFCC00"/>
</g>
<path d="M38 35V36H20V35L22 33V27C22 23.9 24.03 21.17 27 20.29C27 20.19 27 20.1 27 20C27 19.4696 27.2107 18.9609 27.5858 18.5858C27.9609 18.2107 28.4696 18 29 18C29.5304 18 30.0391 18.2107 30.4142 18.5858C30.7893 18.9609 31 19.4696 31 20C31 20.1 31 20.19 31 20.29C33.97 21.17 36 23.9 36 27V33L38 35ZM31 37C31 37.5304 30.7893 38.0391 30.4142 38.4142C30.0391 38.7893 29.5304 39 29 39C28.4696 39 27.9609 38.7893 27.5858 38.4142C27.2107 38.0391 27 37.5304 27 37" fill="black"/>
<defs>
<filter id="filter0_d_263_6" x="0" y="0" width="62" height="62" filterUnits="userSpaceOnUse" color-interpolation-filters="sRGB">
<feFlood flood-opacity="0" result="BackgroundImageFix"/>
<feColorMatrix in="SourceAlpha" type="matrix" values="0 0 0 0 0 0 0 0 0 0 0 0 0 0 0 0 0 0 127 0" result="hardAlpha"/>
<feOffset dx="2" dy="2"/>
<feGaussianBlur stdDeviation="5"/>
<feComposite in2="hardAlpha" operator="out"/>
<feColorMatrix type="matrix" values="0 0 0 0 0 0 0 0 0 0 0 0 0 0 0 0 0 0 0.1 0"/>
<feBlend mode="normal" in2="BackgroundImageFix" result="effect1_dropShadow_263_6"/>
<feBlend mode="normal" in="SourceGraphic" in2="effect1_dropShadow_263_6" result="shape"/>
</filter>
</defs>
</svg>
