<svg width="17" height="17" viewBox="0 0 17 17" fill="none" xmlns="http://www.w3.org/2000/svg">
<path d="M3.15011 9.64453C3.95219 10.4466 4.92615 10.8477 6.07199 10.8477C7.21782 10.8477 8.19178 10.4466 8.99386 9.64453C9.79594 8.84245 10.197 7.86849 10.197 6.72266C10.197 5.57682 9.79594 4.60286 8.99386 3.80078C8.19178 2.9987 7.21782 2.59766 6.07199 2.59766C4.92615 2.59766 3.95219 2.9987 3.15011 3.80078C2.34803 4.60286 1.94699 5.57682 1.94699 6.72266C1.94699 7.86849 2.34803 8.84245 3.15011 9.64453ZM11.572 10.8477L16.1267 15.4023L14.7517 16.7773L10.197 12.2227V11.4922L9.93917 11.2344C8.85063 12.1797 7.56157 12.6523 6.07199 12.6523C4.41053 12.6523 2.99256 12.0794 1.81808 10.9336C0.672246 9.78776 0.099329 8.38411 0.099329 6.72266C0.099329 5.0612 0.672246 3.65755 1.81808 2.51172C2.99256 1.33724 4.41053 0.75 6.07199 0.75C7.73344 0.75 9.13709 1.33724 10.2829 2.51172C11.4288 3.65755 12.0017 5.0612 12.0017 6.72266C12.0017 7.32422 11.8584 8.01172 11.572 8.78516C11.2855 9.52995 10.9561 10.1315 10.5837 10.5898L10.8415 10.8477H11.572Z" fill="black"/>
</svg>
