<svg width="62" height="62" viewBox="0 0 62 62" fill="none" xmlns="http://www.w3.org/2000/svg">
<g filter="url(#filter0_d_245_4)">
<rect x="8" y="8" width="42" height="42" rx="10" fill="#FFCC00"/>
</g>
<path d="M26.7227 31.2773C27.3529 31.9076 28.112 32.2227 29 32.2227C29.888 32.2227 30.6471 31.9076 31.2773 31.2773C31.9076 30.6471 32.2227 29.888 32.2227 29C32.2227 28.112 31.9076 27.3529 31.2773 26.7227C30.6471 26.0924 29.888 25.7773 29 25.7773C28.112 25.7773 27.3529 26.0924 26.7227 26.7227C26.0924 27.3529 25.7773 28.112 25.7773 29C25.7773 29.888 26.0924 30.6471 26.7227 31.2773ZM35.832 29.9023L37.7656 31.4062C37.9661 31.5495 37.9948 31.75 37.8516 32.0078L36.0039 35.1875C35.8893 35.388 35.7031 35.4453 35.4453 35.3594L33.168 34.457C32.5664 34.8867 32.0508 35.1875 31.6211 35.3594L31.2773 37.7656C31.2201 38.0234 31.0768 38.1523 30.8477 38.1523H27.1523C26.9232 38.1523 26.7799 38.0234 26.7227 37.7656L26.3789 35.3594C25.8346 35.1302 25.319 34.8294 24.832 34.457L22.5547 35.3594C22.2969 35.4453 22.1107 35.388 21.9961 35.1875L20.1484 32.0078C20.0052 31.75 20.0339 31.5495 20.2344 31.4062L22.168 29.9023C22.1393 29.7018 22.125 29.401 22.125 29C22.125 28.599 22.1393 28.2982 22.168 28.0977L20.2344 26.5938C20.0339 26.4505 20.0052 26.25 20.1484 25.9922L21.9961 22.8125C22.1107 22.612 22.2969 22.5547 22.5547 22.6406L24.832 23.543C25.4336 23.1133 25.9492 22.8125 26.3789 22.6406L26.7227 20.2344C26.7799 19.9766 26.9232 19.8477 27.1523 19.8477H30.8477C31.0768 19.8477 31.2201 19.9766 31.2773 20.2344L31.6211 22.6406C32.1654 22.8698 32.681 23.1706 33.168 23.543L35.4453 22.6406C35.7031 22.5547 35.8893 22.612 36.0039 22.8125L37.8516 25.9922C37.9948 26.25 37.9661 26.4505 37.7656 26.5938L35.832 28.0977C35.8607 28.2982 35.875 28.599 35.875 29C35.875 29.401 35.8607 29.7018 35.832 29.9023Z" fill="black"/>
<defs>
<filter id="filter0_d_245_4" x="0" y="0" width="62" height="62" filterUnits="userSpaceOnUse" color-interpolation-filters="sRGB">
<feFlood flood-opacity="0" result="BackgroundImageFix"/>
<feColorMatrix in="SourceAlpha" type="matrix" values="0 0 0 0 0 0 0 0 0 0 0 0 0 0 0 0 0 0 127 0" result="hardAlpha"/>
<feOffset dx="2" dy="2"/>
<feGaussianBlur stdDeviation="5"/>
<feComposite in2="hardAlpha" operator="out"/>
<feColorMatrix type="matrix" values="0 0 0 0 0 0 0 0 0 0 0 0 0 0 0 0 0 0 0.1 0"/>
<feBlend mode="normal" in2="BackgroundImageFix" result="effect1_dropShadow_245_4"/>
<feBlend mode="normal" in="SourceGraphic" in2="effect1_dropShadow_245_4" result="shape"/>
</filter>
</defs>
</svg>
